# 3ds Max Wavefront OBJ Exporter v0.97b - (c)2007 guruware
# File Created: 28.05.2018 17:52:42

#
# object Box001
#

mtllib unit_logo.mtl

v  24.7841 0.0260 9.9301
v  24.7841 0.0260 -9.9301
v  36.8741 0.0260 -9.9301
v  36.8741 0.0260 9.9301
v  36.8741 21.9290 -2.6833
v  24.7841 21.9290 -2.6833
v  24.7841 21.9290 2.6833
v  36.8741 21.9290 2.6833
v  36.8741 21.9290 -9.9301
v  24.7841 21.9290 -9.9301
v  24.7841 21.9290 -7.6999
v  36.8741 21.9290 -7.6999
v  24.7841 21.9290 9.9301
v  36.8741 21.9290 9.9301
v  36.8741 21.9290 7.6999
v  24.7841 21.9290 7.6999
v  36.8741 1.7845 -11.6887
v  24.7841 1.7845 -11.6887
v  24.7841 20.1705 -11.6887
v  36.8741 20.1705 -11.6887
v  36.8741 9.9668 -7.6999
v  24.7841 9.9668 -7.6999
v  37.5458 9.9462 8.1867
v  37.5458 21.4423 8.1867
v  37.5458 21.4423 9.8819
v  37.5458 7.5673 7.9845
v  37.5458 21.2852 10.6671
v  37.5458 20.9075 11.0449
v  37.5458 20.1223 11.2020
v  37.5458 1.8327 11.2020
v  37.5458 5.5391 7.3614
v  37.5458 3.8717 6.2879
v  37.5458 2.7982 4.6205
v  37.5458 2.1751 2.5923
v  37.5458 2.0745 0.2091
v  37.5458 2.0745 -0.2091
v  37.5458 1.0475 11.0449
v  37.5458 0.6698 10.6671
v  37.5458 0.5127 9.8819
v  37.5458 0.5127 -9.8819
v  37.5458 2.1751 -2.5923
v  37.5458 2.7982 -4.6205
v  37.5458 3.8717 -6.2879
v  37.5458 5.5391 -7.3614
v  37.5458 7.5673 -7.9845
v  37.5458 9.9462 -8.1867
v  37.5458 0.6698 -10.6671
v  37.5458 1.0475 -11.0449
v  37.5458 1.8327 -11.2020
v  37.5458 20.1223 -11.2020
v  37.5458 20.9075 -11.0449
v  37.5458 21.2852 -10.6671
v  37.5458 21.4423 -9.8819
v  37.5458 21.4423 -8.1867
v  24.7841 1.7845 11.6887
v  36.8741 1.7845 11.6887
v  36.8741 20.1705 11.6887
v  24.7841 20.1705 11.6887
v  24.7841 9.9668 7.6999
v  36.8741 9.9668 7.6999
v  24.1124 9.9462 -8.1867
v  24.1124 21.4423 -8.1867
v  24.1124 21.4423 -9.8819
v  24.1124 7.5673 -7.9845
v  24.1124 21.2852 -10.6671
v  24.1124 20.9075 -11.0449
v  24.1124 20.1223 -11.2020
v  24.1124 1.8327 -11.2020
v  24.1124 5.5391 -7.3614
v  24.1124 3.8717 -6.2879
v  24.1124 2.7982 -4.6205
v  24.1124 2.1751 -2.5923
v  24.1124 2.0745 -0.2091
v  24.1124 2.0745 0.2091
v  24.1124 1.0475 -11.0449
v  24.1124 0.6698 -10.6671
v  24.1124 0.5127 -9.8819
v  24.1124 0.5127 9.8819
v  24.1124 2.1751 2.5923
v  24.1124 2.7982 4.6205
v  24.1124 3.8717 6.2879
v  24.1124 5.5391 7.3614
v  24.1124 7.5673 7.9845
v  24.1124 9.9462 8.1867
v  24.1124 0.6698 10.6671
v  24.1124 1.0475 11.0449
v  24.1124 1.8327 11.2020
v  24.1124 20.1223 11.2020
v  24.1124 20.9075 11.0449
v  24.1124 21.2852 10.6671
v  24.1124 21.4423 9.8819
v  24.1124 21.4423 8.1867
v  36.8741 2.4597 0.1928
v  36.8741 2.4597 -0.1928
v  24.7841 2.4597 -0.1928
v  24.7841 2.4597 0.1928
v  37.5458 21.4423 2.1966
v  37.5458 9.3758 2.1966
v  37.5458 8.1857 1.9585
v  37.5458 7.5650 1.3378
v  37.5458 7.2302 0.1573
v  37.5458 21.4423 -2.1966
v  37.5458 9.3758 -2.1966
v  37.5458 8.1857 -1.9585
v  37.5458 7.5650 -1.3378
v  37.5458 7.2302 -0.1573
v  36.8741 9.3276 -2.6833
v  24.7841 9.3276 -2.6833
v  24.1124 21.4423 -2.1966
v  24.1124 9.3758 -2.1966
v  24.1124 8.1857 -1.9585
v  24.1124 7.5650 -1.3378
v  24.1124 7.2302 -0.1573
v  24.1124 21.4423 2.1966
v  24.1124 9.3758 2.1966
v  24.1124 8.1857 1.9585
v  24.1124 7.5650 1.3378
v  24.1124 7.2302 0.1573
v  24.7841 9.3276 2.6833
v  36.8741 9.3276 2.6833
v  24.7841 6.8403 0.1959
v  24.7841 6.8403 -0.1959
v  36.8741 6.8403 -0.1959
v  36.8741 6.8403 0.1959
v  36.8741 0.2214 -10.9071
v  24.7841 0.2214 -10.9071
v  24.7841 0.2214 10.9071
v  36.8741 0.2214 10.9071
v  24.7841 21.7336 -10.9071
v  36.8741 21.7336 -10.9071
v  36.8741 21.7336 10.9071
v  24.7841 21.7336 10.9071
v  36.8741 0.8076 -11.4933
v  24.7841 0.8076 -11.4933
v  24.7841 0.8076 11.4933
v  36.8741 0.8076 11.4933
v  24.7841 21.1474 -11.4933
v  36.8741 21.1474 -11.4933
v  36.8741 21.1474 11.4933
v  24.7841 21.1474 11.4933
v  24.7841 7.9458 -2.4069
v  36.8741 7.9458 -2.4069
v  36.8741 7.9458 2.4069
v  24.7841 7.9458 2.4069
v  24.7841 7.1166 -1.5778
v  36.8741 7.1166 -1.5778
v  36.8741 7.1166 1.5778
v  24.7841 7.1166 1.5778
v  24.7841 7.6605 -7.5039
v  36.8741 7.6605 -7.5039
v  24.7841 5.7461 -6.9158
v  36.8741 5.7461 -6.9158
v  24.7841 4.2238 -5.9357
v  36.8741 4.2238 -5.9357
v  36.8741 7.6605 7.5039
v  24.7841 7.6605 7.5039
v  36.8741 5.7461 6.9158
v  24.7841 5.7461 6.9158
v  36.8741 4.2238 5.9357
v  24.7841 4.2238 5.9357
v  24.7841 2.6557 2.4991
v  36.8741 2.6557 2.4991
v  24.7841 3.2437 4.4135
v  36.8741 3.2437 4.4135
v  36.8741 2.6557 -2.4991
v  24.7841 2.6557 -2.4991
v  36.8741 3.2437 -4.4135
v  24.7841 3.2437 -4.4135
# 168 vertices

vn 0.0000 -1.0000 -0.0000
vn 0.0000 1.0000 -0.0000
vn 0.0000 0.0000 -1.0000
vn 0.0000 0.0000 1.0000
vn 1.0000 0.0000 -0.0000
vn -1.0000 0.0000 -0.0000
vn 0.0000 -0.0000 -1.0000
vn 0.0000 -0.9806 -0.1961
vn 0.0000 -0.9806 0.1961
vn 0.0000 0.9806 -0.1961
vn 0.0000 0.9806 0.1961
vn 0.0000 -0.7071 -0.7071
vn 0.0000 -0.1961 -0.9806
vn 0.0000 -0.7071 0.7071
vn 0.0000 -0.1961 0.9806
vn 0.0000 0.7071 -0.7071
vn 0.0000 0.1961 -0.9806
vn 0.0000 0.7071 0.7071
vn 0.0000 0.1961 0.9806
vn 0.0000 0.0847 0.9964
vn 0.0000 0.2936 0.9559
vn 0.0000 0.5413 0.8408
vn 0.0000 0.0847 -0.9964
vn 0.0000 0.2936 -0.9559
vn 0.0000 0.5413 -0.8408
vn 0.0000 0.9964 -0.0847
vn 0.0000 0.9559 -0.2936
vn 0.0000 0.8408 -0.5413
vn 0.0000 0.9964 0.0847
vn 0.0000 0.9559 0.2936
vn 0.0000 0.8408 0.5413
vn -0.5868 -0.8097 -0.0000
vn -0.5868 0.8097 -0.0000
vn -0.5868 0.0000 -0.8097
vn -0.5868 -0.0000 0.8097
vn -0.5868 0.0000 0.8097
vn -0.5868 0.0686 -0.8068
vn -0.5868 0.2378 -0.7740
vn -0.5868 0.4383 -0.6808
vn -0.5868 0.6808 -0.4383
vn -0.5868 0.7740 -0.2378
vn -0.5868 0.8068 -0.0686
vn -0.4978 0.8665 -0.0366
vn -0.4975 0.8675 -0.0000
vn -0.4975 0.8644 0.0735
vn -0.5847 0.8105 0.0342
vn -0.5868 0.7740 0.2378
vn -0.5868 0.6808 0.4383
vn -0.5868 0.4383 0.6808
vn -0.5868 0.2378 0.7740
vn -0.5868 0.0686 0.8068
vn -0.5868 0.7940 -0.1588
vn -0.5868 0.5726 -0.5726
vn -0.5868 0.1588 -0.7940
vn -0.5868 -0.1588 -0.7940
vn -0.5868 -0.5726 -0.5726
vn -0.5868 -0.7940 -0.1588
vn -0.5868 -0.7940 0.1588
vn -0.5868 -0.5726 0.5726
vn -0.5868 -0.1588 0.7940
vn -0.5868 0.1588 0.7940
vn -0.5868 0.5726 0.5726
vn -0.5868 0.7940 0.1588
vn -0.5868 -0.0000 -0.8097
vn -0.5021 -0.8480 0.1696
vn -0.5947 -0.7734 0.2194
vn -0.4979 -0.8343 -0.2366
vn -0.5021 -0.8648 -0.0000
vn 0.5868 -0.8097 -0.0000
vn 0.5868 0.8097 -0.0000
vn 0.5868 0.0000 -0.8097
vn 0.5868 -0.0000 0.8097
vn 0.5868 0.0000 0.8097
vn 0.5868 0.0686 0.8068
vn 0.5868 0.2378 0.7740
vn 0.5868 0.4383 0.6808
vn 0.5868 0.6808 0.4383
vn 0.5868 0.7740 0.2378
vn 0.5868 0.8068 0.0686
vn 0.4978 0.8665 0.0366
vn 0.4975 0.8675 -0.0000
vn 0.4975 0.8644 -0.0735
vn 0.5847 0.8105 -0.0342
vn 0.5868 0.7740 -0.2378
vn 0.5868 0.6808 -0.4383
vn 0.5868 0.4383 -0.6808
vn 0.5868 0.2378 -0.7740
vn 0.5868 0.0686 -0.8068
vn 0.5868 0.7940 0.1588
vn 0.5868 0.5726 0.5726
vn 0.5868 0.1588 0.7940
vn 0.5868 -0.1588 0.7940
vn 0.5868 -0.5726 0.5726
vn 0.5868 -0.7940 0.1588
vn 0.5868 -0.7940 -0.1588
vn 0.5868 -0.5726 -0.5726
vn 0.5868 -0.1588 -0.7940
vn 0.5868 0.1588 -0.7940
vn 0.5868 0.5726 -0.5726
vn 0.5868 0.7940 -0.1588
vn 0.5021 -0.8480 -0.1696
vn 0.5947 -0.7734 -0.2194
vn 0.5868 -0.0000 -0.8097
vn 0.4979 -0.8343 0.2366
vn 0.5021 -0.8648 -0.0000
# 105 vertex normals

vt 0.9500 0.0752 0.0000
vt 0.9500 0.9248 0.0000
vt 0.0500 0.9248 0.0000
vt 0.0500 0.0752 0.0000
vt 0.9500 0.6148 0.0000
vt 0.0500 0.6148 0.0000
vt 0.0500 0.3852 0.0000
vt 0.9500 0.3852 0.0000
vt 0.0500 0.8294 0.0000
vt 0.9500 0.8294 0.0000
vt 0.9500 0.1706 0.0000
vt 0.0500 0.1706 0.0000
vt 0.9500 1.0000 0.0000
vt 0.0500 1.0000 0.0000
vt 1.0000 0.1434 0.0000
vt 1.0000 0.1498 0.0000
vt 1.0000 0.0771 0.0000
vt 1.0000 0.1511 0.0000
vt 1.0000 0.0437 0.0000
vt 1.0000 0.0275 0.0000
vt 1.0000 0.0208 0.0000
vt 1.0000 0.0203 0.0000
vt 1.0000 0.1561 0.0000
vt 1.0000 0.1679 0.0000
vt 1.0000 0.2839 0.0000
vt 1.0000 0.3891 0.0000
vt 1.0000 0.4911 0.0000
vt 1.0000 0.5089 0.0000
vt 1.0000 0.0773 0.0000
vt 1.0000 0.9227 0.0000
vt 1.0000 0.6143 0.0000
vt 1.0000 0.7229 0.0000
vt 1.0000 0.8376 0.0000
vt 1.0000 0.8396 0.0000
vt 1.0000 0.8445 0.0000
vt 1.0000 0.8502 0.0000
vt 1.0000 0.9563 0.0000
vt 1.0000 0.9725 0.0000
vt 1.0000 0.9792 0.0000
vt 0.0500 0.0000 0.0000
vt 0.9500 0.0000 0.0000
vt 0.0000 0.8566 0.0000
vt 0.0000 0.8502 0.0000
vt 0.0000 0.9229 0.0000
vt 0.0000 0.8489 0.0000
vt 0.0000 0.9563 0.0000
vt 0.0000 0.9725 0.0000
vt 0.0000 0.9792 0.0000
vt 0.0000 0.9797 0.0000
vt 0.0000 0.8439 0.0000
vt 0.0000 0.8321 0.0000
vt 0.0000 0.7161 0.0000
vt 0.0000 0.6109 0.0000
vt 0.0000 0.5089 0.0000
vt 0.0000 0.4911 0.0000
vt 0.0000 0.9227 0.0000
vt 0.0000 0.0773 0.0000
vt 0.0000 0.3857 0.0000
vt 0.0000 0.2771 0.0000
vt 0.0000 0.1624 0.0000
vt 0.0000 0.1604 0.0000
vt 0.0000 0.1555 0.0000
vt 0.0000 0.1498 0.0000
vt 0.0000 0.0437 0.0000
vt 0.0000 0.0275 0.0000
vt 0.0000 0.0208 0.0000
vt 0.9500 0.4918 0.0000
vt 0.9500 0.5082 0.0000
vt 0.0500 0.5082 0.0000
vt 0.0500 0.4918 0.0000
vt 1.0000 0.4060 0.0000
vt 1.0000 0.4162 0.0000
vt 1.0000 0.4428 0.0000
vt 1.0000 0.4933 0.0000
vt 1.0000 0.5940 0.0000
vt 1.0000 0.5838 0.0000
vt 1.0000 0.5572 0.0000
vt 1.0000 0.5067 0.0000
vt 0.0000 0.5940 0.0000
vt 0.0000 0.5838 0.0000
vt 0.0000 0.5572 0.0000
vt 0.0000 0.5067 0.0000
vt 0.0000 0.4060 0.0000
vt 0.0000 0.4162 0.0000
vt 0.0000 0.4428 0.0000
vt 0.0000 0.4933 0.0000
vt 0.0500 0.4916 0.0000
vt 0.0500 0.5084 0.0000
vt 0.9500 0.5084 0.0000
vt 0.9500 0.4916 0.0000
vt 0.9500 1.1650 0.0000
vt 0.9500 1.2475 0.0000
vt 0.0500 1.2475 0.0000
vt 0.0500 1.1650 0.0000
vt 0.0500 -0.1650 0.0000
vt 0.0500 -0.2475 0.0000
vt 0.9500 -0.2475 0.0000
vt 0.9500 -0.1650 0.0000
vt 0.0500 0.9666 0.0000
vt 0.9500 0.9666 0.0000
vt 0.9500 0.0334 0.0000
vt 0.0500 0.0334 0.0000
vt 0.9500 1.0825 0.0000
vt 0.0500 1.0825 0.0000
vt 0.0500 -0.0825 0.0000
vt 0.9500 -0.0825 0.0000
vt 0.0500 0.9916 0.0000
vt 0.9500 0.9916 0.0000
vt 0.9500 0.0084 0.0000
vt 0.0500 0.0084 0.0000
vt 0.0500 0.6030 0.0000
vt 0.9500 0.6030 0.0000
vt 0.9500 0.3970 0.0000
vt 0.0500 0.3970 0.0000
vt 0.0500 0.5675 0.0000
vt 0.9500 0.5675 0.0000
vt 0.9500 0.4325 0.0000
vt 0.0500 0.4325 0.0000
vt 0.0500 0.3847 0.0000
vt 0.9500 0.3847 0.0000
vt 0.0500 0.2777 0.0000
vt 0.9500 0.2777 0.0000
vt 0.9500 0.6153 0.0000
vt 0.0500 0.6153 0.0000
vt 0.9500 0.7223 0.0000
vt 0.0500 0.7223 0.0000
vt -0.0209 0.0752 0.0000
vt -0.0209 0.9248 0.0000
vt 0.0000 0.9979 0.0000
vt -0.0000 0.0021 0.0000
vt 0.0903 1.0035 0.0000
vt 0.1137 1.0709 0.0000
vt 0.0171 1.0972 0.0000
vt 0.0171 1.1504 0.0000
vt 0.1137 1.1767 0.0000
vt 0.0903 1.2441 0.0000
vt 0.0903 -0.2441 0.0000
vt 0.1137 -0.1767 0.0000
vt 0.0171 -0.1504 0.0000
vt 0.0171 -0.0972 0.0000
vt 0.1137 -0.0709 0.0000
vt 0.0903 -0.0035 0.0000
vt 1.0209 0.9248 0.0000
vt 1.0209 0.0752 0.0000
vt 1.0000 0.9978 0.0000
vt 0.5336 0.0000 0.0000
vt 0.9144 -0.0035 0.0000
vt 0.8921 -0.0709 0.0000
vt 0.9840 -0.0972 0.0000
vt 0.9840 -0.1504 0.0000
vt 0.8921 -0.1767 0.0000
vt 0.9144 -0.2441 0.0000
vt 0.9144 1.2441 0.0000
vt 0.8921 1.1767 0.0000
vt 0.9840 1.1504 0.0000
vt 0.9840 1.0972 0.0000
vt 0.8921 1.0709 0.0000
vt 0.9144 1.0035 0.0000
# 158 texture coords

usemtl Material
f 1/1/1 2/2/1 3/3/1
f 3/3/1 4/4/1 1/1/1
f 5/5/2 6/6/2 7/7/2
f 7/7/2 8/8/2 5/5/2
f 9/2/2 10/3/2 11/9/2
f 11/9/2 12/10/2 9/2/2
f 13/4/2 14/1/2 15/11/2
f 15/11/2 16/12/2 13/4/2
f 17/13/3 18/14/3 19/14/3
f 19/14/3 20/13/3 17/13/3
f 21/10/4 12/10/4 11/9/4
f 11/9/4 22/9/4 21/10/4
f 23/15/5 24/16/5 25/17/5
f 26/18/5 23/15/5 25/17/5
f 25/17/5 27/19/5 28/20/5
f 28/20/5 29/21/5 30/22/5
f 25/17/5 28/20/5 30/22/5
f 26/18/5 25/17/5 30/22/5
f 31/23/5 26/18/5 30/22/5
f 32/24/5 31/23/5 30/22/5
f 33/25/5 32/24/5 30/22/5
f 34/26/5 33/25/5 30/22/5
f 35/27/5 34/26/5 30/22/5
f 36/28/5 35/27/5 30/22/5
f 30/22/5 37/20/5 38/19/5
f 38/19/5 39/29/5 40/30/5
f 30/22/5 38/19/5 40/30/5
f 36/28/5 30/22/5 40/30/5
f 41/31/5 36/28/5 40/30/5
f 42/32/5 41/31/5 40/30/5
f 43/33/5 42/32/5 40/30/5
f 44/34/5 43/33/5 40/30/5
f 45/35/5 44/34/5 40/30/5
f 46/36/5 45/35/5 40/30/5
f 40/30/5 47/37/5 48/38/5
f 48/38/5 49/39/5 50/39/5
f 40/30/5 48/38/5 50/39/5
f 46/36/5 40/30/5 50/39/5
f 50/39/5 51/38/5 52/37/5
f 46/36/5 50/39/5 52/37/5
f 46/36/5 52/37/5 53/30/5
f 46/36/5 53/30/5 54/36/5
f 55/40/4 56/41/4 57/41/4
f 57/41/4 58/40/4 55/40/4
f 59/12/3 16/12/3 15/11/3
f 15/11/3 60/11/3 59/12/3
f 61/42/6 62/43/6 63/44/6
f 64/45/6 61/42/6 63/44/6
f 63/44/6 65/46/6 66/47/6
f 66/47/6 67/48/6 68/49/6
f 63/44/6 66/47/6 68/49/6
f 64/45/6 63/44/6 68/49/6
f 69/50/6 64/45/6 68/49/6
f 70/51/6 69/50/6 68/49/6
f 71/52/6 70/51/6 68/49/6
f 72/53/6 71/52/6 68/49/6
f 73/54/6 72/53/6 68/49/6
f 74/55/6 73/54/6 68/49/6
f 68/49/6 75/47/6 76/46/6
f 76/46/6 77/56/6 78/57/6
f 68/49/6 76/46/6 78/57/6
f 74/55/6 68/49/6 78/57/6
f 79/58/6 74/55/6 78/57/6
f 80/59/6 79/58/6 78/57/6
f 81/60/6 80/59/6 78/57/6
f 82/61/6 81/60/6 78/57/6
f 83/62/6 82/61/6 78/57/6
f 84/63/6 83/62/6 78/57/6
f 78/57/6 85/64/6 86/65/6
f 86/65/6 87/66/6 88/66/6
f 78/57/6 86/65/6 88/66/6
f 84/63/6 78/57/6 88/66/6
f 88/66/6 89/65/6 90/64/6
f 84/63/6 88/66/6 90/64/6
f 84/63/6 90/64/6 91/57/6
f 84/63/6 91/57/6 92/63/6
f 93/67/2 94/68/2 95/69/2
f 95/69/2 96/70/2 93/67/2
f 97/71/5 98/71/5 99/72/5
f 97/71/5 99/72/5 100/73/5
f 97/71/5 100/73/5 101/74/5
f 102/75/5 97/71/5 101/74/5
f 103/75/5 102/75/5 101/74/5
f 104/76/5 103/75/5 101/74/5
f 105/77/5 104/76/5 101/74/5
f 106/78/5 105/77/5 101/74/5
f 6/6/7 5/5/7 107/5/7
f 107/5/7 108/6/7 6/6/7
f 109/79/6 110/79/6 111/80/6
f 109/79/6 111/80/6 112/81/6
f 109/79/6 112/81/6 113/82/6
f 114/83/6 109/79/6 113/82/6
f 115/83/6 114/83/6 113/82/6
f 116/84/6 115/83/6 113/82/6
f 117/85/6 116/84/6 113/82/6
f 118/86/6 117/85/6 113/82/6
f 8/8/4 7/7/4 119/7/4
f 119/7/4 120/8/4 8/8/4
f 121/87/1 122/88/1 123/89/1
f 123/89/1 124/90/1 121/87/1
f 125/91/8 3/92/8 2/93/8
f 2/93/8 126/94/8 125/91/8
f 127/95/9 1/96/9 4/97/9
f 4/97/9 128/98/9 127/95/9
f 129/99/10 10/3/10 9/2/10
f 9/2/10 130/100/10 129/99/10
f 131/101/11 14/1/11 13/4/11
f 13/4/11 132/102/11 131/101/11
f 133/103/12 125/91/12 126/94/12
f 126/94/12 134/104/12 133/103/12
f 17/13/13 133/103/13 134/104/13
f 134/104/13 18/14/13 17/13/13
f 135/105/14 127/95/14 128/98/14
f 128/98/14 136/106/14 135/105/14
f 55/40/15 135/105/15 136/106/15
f 136/106/15 56/41/15 55/40/15
f 137/107/16 129/99/16 130/100/16
f 130/100/16 138/108/16 137/107/16
f 19/14/17 137/107/17 138/108/17
f 138/108/17 20/13/17 19/14/17
f 139/109/18 131/101/18 132/102/18
f 132/102/18 140/110/18 139/109/18
f 57/41/19 139/109/19 140/110/19
f 140/110/19 58/40/19 57/41/19
f 141/111/13 108/6/13 107/5/13
f 107/5/13 142/112/13 141/111/13
f 143/113/15 120/8/15 119/7/15
f 119/7/15 144/114/15 143/113/15
f 145/115/12 141/111/12 142/112/12
f 142/112/12 146/116/12 145/115/12
f 122/88/8 145/115/8 146/116/8
f 146/116/8 123/89/8 122/88/8
f 147/117/14 143/113/14 144/114/14
f 144/114/14 148/118/14 147/117/14
f 124/90/9 147/117/9 148/118/9
f 148/118/9 121/87/9 124/90/9
f 21/10/20 22/9/20 149/9/20
f 149/9/20 150/10/20 21/10/20
f 150/10/21 149/9/21 151/9/21
f 151/9/21 152/10/21 150/10/21
f 152/10/22 151/9/22 153/9/22
f 153/9/22 154/10/22 152/10/22
f 59/12/23 60/11/23 155/11/23
f 155/11/23 156/12/23 59/12/23
f 156/12/24 155/11/24 157/11/24
f 157/11/24 158/12/24 156/12/24
f 158/12/25 157/11/25 159/11/25
f 159/11/25 160/12/25 158/12/25
f 93/67/26 96/70/26 161/119/26
f 161/119/26 162/120/26 93/67/26
f 162/120/27 161/119/27 163/121/27
f 163/121/27 164/122/27 162/120/27
f 164/122/28 163/121/28 160/12/28
f 160/12/28 159/11/28 164/122/28
f 95/69/29 94/68/29 165/123/29
f 165/123/29 166/124/29 95/69/29
f 166/124/30 165/123/30 167/125/30
f 167/125/30 168/126/30 166/124/30
f 168/126/31 167/125/31 154/10/31
f 154/10/31 153/9/31 168/126/31
f 1/127/32 78/57/32 77/56/32
f 77/56/32 2/128/32 1/127/32
f 6/6/33 109/79/33 114/83/33
f 114/83/33 7/7/33 6/6/33
f 10/3/33 63/44/33 62/43/33
f 62/43/33 11/9/33 10/3/33
f 16/12/33 92/63/33 91/57/33
f 91/57/33 13/4/33 16/12/33
f 18/129/34 68/49/34 67/48/34
f 67/48/34 19/129/34 18/129/34
f 11/9/35 62/43/35 61/42/35
f 61/42/36 22/9/36 11/9/36
f 58/130/36 88/66/36 87/66/36
f 87/66/36 55/130/36 58/130/36
f 59/12/34 84/63/34 92/63/34
f 92/63/34 16/12/34 59/12/34
f 84/63/37 59/12/37 156/12/37
f 156/12/37 83/62/37 84/63/37
f 83/62/38 156/12/38 158/12/38
f 158/12/38 82/61/38 83/62/38
f 82/61/39 158/12/39 160/12/39
f 160/12/39 81/60/39 82/61/39
f 81/60/40 160/12/40 163/121/40
f 163/121/40 80/59/40 81/60/40
f 80/59/41 163/121/41 161/119/41
f 161/119/41 79/58/41 80/59/41
f 79/58/42 161/119/42 96/70/42
f 96/70/43 74/55/43 79/58/43
f 74/55/44 96/70/44 95/69/44
f 95/69/44 73/54/44 74/55/44
f 73/54/45 95/69/45 166/124/45
f 166/124/46 72/53/46 73/54/46
f 72/53/47 166/124/47 168/126/47
f 168/126/47 71/52/47 72/53/47
f 71/52/48 168/126/48 153/9/48
f 153/9/48 70/51/48 71/52/48
f 70/51/49 153/9/49 151/9/49
f 151/9/49 69/50/49 70/51/49
f 69/50/50 151/9/50 149/9/50
f 149/9/50 64/45/50 69/50/50
f 64/45/51 149/9/51 22/9/51
f 22/9/51 61/42/51 64/45/51
f 63/44/52 10/3/52 129/99/52
f 129/99/52 65/46/52 63/44/52
f 65/46/53 129/99/53 137/107/53
f 137/107/53 66/47/53 65/46/53
f 66/47/54 137/107/54 19/14/54
f 19/14/54 67/48/54 66/47/54
usemtl Material2
f 68/131/55 18/14/55 134/104/55
f 134/104/55 75/132/55 68/131/55
f 75/133/56 134/104/56 126/94/56
f 126/94/56 76/134/56 75/133/56
f 76/135/57 126/94/57 2/93/57
f 2/93/57 77/136/57 76/135/57
f 78/137/58 1/96/58 127/95/58
f 127/95/58 85/138/58 78/137/58
f 85/139/59 127/95/59 135/105/59
f 135/105/59 86/140/59 85/139/59
f 86/141/60 135/105/60 55/40/60
f 55/40/60 87/142/60 86/141/60
f 88/66/61 58/40/61 140/110/61
f 140/110/61 89/65/61 88/66/61
f 89/65/62 140/110/62 132/102/62
f 132/102/62 90/64/62 89/65/62
f 90/64/63 132/102/63 13/4/63
f 13/4/63 91/57/63 90/64/63
f 108/6/64 110/79/64 109/79/64
f 109/79/64 6/6/64 108/6/64
f 118/86/65 121/87/65 148/118/65
f 148/118/66 117/85/66 118/86/66
f 117/85/59 148/118/59 144/114/59
f 144/114/59 116/84/59 117/85/59
f 116/84/60 144/114/60 119/7/60
f 119/7/60 115/83/60 116/84/60
f 115/83/36 119/7/36 7/7/36
f 7/7/36 114/83/36 115/83/36
f 110/79/55 108/6/55 141/111/55
f 141/111/55 111/80/55 110/79/55
f 111/80/56 141/111/56 145/115/56
f 145/115/56 112/81/56 111/80/56
f 112/81/57 145/115/57 122/88/57
f 122/88/67 113/82/67 112/81/67
f 113/82/68 122/88/68 121/87/68
f 121/87/68 118/86/68 113/82/68
f 3/143/69 40/30/69 39/29/69
f 39/29/69 4/144/69 3/143/69
f 8/8/70 97/71/70 102/75/70
f 102/75/70 5/5/70 8/8/70
f 12/10/70 54/36/70 53/30/70
f 53/30/70 9/2/70 12/10/70
f 14/1/70 25/17/70 24/16/70
f 24/16/70 15/11/70 14/1/70
f 20/145/71 50/39/71 49/39/71
f 49/39/71 17/145/71 20/145/71
f 21/10/72 46/36/72 54/36/72
f 54/36/73 12/10/73 21/10/73
f 46/36/74 21/10/74 150/10/74
f 150/10/74 45/35/74 46/36/74
f 45/35/75 150/10/75 152/10/75
f 152/10/75 44/34/75 45/35/75
f 44/34/76 152/10/76 154/10/76
f 154/10/76 43/33/76 44/34/76
f 43/33/77 154/10/77 167/125/77
f 167/125/77 42/32/77 43/33/77
f 42/32/78 167/125/78 165/123/78
f 165/123/78 41/31/78 42/32/78
f 41/31/79 165/123/79 94/68/79
f 94/68/80 36/28/80 41/31/80
f 36/28/81 94/68/81 93/67/81
f 93/67/81 35/27/81 36/28/81
f 35/27/82 93/67/82 162/120/82
f 162/120/83 34/26/83 35/27/83
f 34/26/84 162/120/84 164/122/84
f 164/122/84 33/25/84 34/26/84
f 33/25/85 164/122/85 159/11/85
f 159/11/85 32/24/85 33/25/85
f 32/24/86 159/11/86 157/11/86
f 157/11/86 31/23/86 32/24/86
f 31/23/87 157/11/87 155/11/87
f 155/11/87 26/18/87 31/23/87
f 26/18/88 155/11/88 60/11/88
f 60/11/88 23/15/88 26/18/88
f 23/15/71 60/11/71 15/11/71
f 15/11/71 24/16/71 23/15/71
f 25/17/89 14/1/89 131/101/89
f 131/101/89 27/19/89 25/17/89
f 27/19/90 131/101/90 139/109/90
f 139/109/90 28/20/90 27/19/90
f 28/20/91 139/109/91 57/41/91
f 57/41/91 29/21/91 28/20/91
f 29/146/73 57/41/73 56/41/73
f 56/41/73 30/146/73 29/146/73
f 30/147/92 56/41/92 136/106/92
f 136/106/92 37/148/92 30/147/92
f 37/149/93 136/106/93 128/98/93
f 128/98/93 38/150/93 37/149/93
f 38/151/94 128/98/94 4/97/94
f 4/97/94 39/152/94 38/151/94
f 40/153/95 3/92/95 125/91/95
f 125/91/95 47/154/95 40/153/95
f 47/155/96 125/91/96 133/103/96
f 133/103/96 48/156/96 47/155/96
f 48/157/97 133/103/97 17/13/97
f 17/13/97 49/158/97 48/157/97
f 50/39/98 20/13/98 138/108/98
f 138/108/98 51/38/98 50/39/98
f 51/38/99 138/108/99 130/100/99
f 130/100/99 52/37/99 51/38/99
f 52/37/100 130/100/100 9/2/100
f 9/2/100 53/30/100 52/37/100
f 106/78/101 123/89/101 146/116/101
f 146/116/102 105/77/102 106/78/102
f 105/77/96 146/116/96 142/112/96
f 142/112/96 104/76/96 105/77/96
f 104/76/97 142/112/97 107/5/97
f 107/5/97 103/75/97 104/76/97
f 103/75/103 107/5/103 5/5/103
f 5/5/103 102/75/103 103/75/103
f 97/71/73 8/8/73 120/8/73
f 120/8/73 98/71/73 97/71/73
f 98/71/92 120/8/92 143/113/92
f 143/113/92 99/72/92 98/71/92
f 99/72/93 143/113/93 147/117/93
f 147/117/93 100/73/93 99/72/93
f 100/73/94 147/117/94 124/90/94
f 124/90/104 101/74/104 100/73/104
f 101/74/105 124/90/105 123/89/105
f 123/89/105 106/78/105 101/74/105
# 328 faces
